Coordinates
version=1
nRows=9
nColumns=36
inDegrees=yes

Units are S.I. units (second, meters, Newtons, ...)
If the header above contains a line with 'inDegrees', this indicates whether rotational values are in degrees (yes) or radians (no).

endheader
time	pelvis_tilt	pelvis_list	pelvis_rotation	pelvis_tx	pelvis_ty	pelvis_tz	hip_flexion_r	hip_adduction_r	hip_rotation_r	knee_angle_r	knee_angle_r_beta	ankle_angle_r	subtalar_angle_r	mtp_angle_r	hip_flexion_l	hip_adduction_l	hip_rotation_l	knee_angle_l	knee_angle_l_beta	ankle_angle_l	subtalar_angle_l	mtp_angle_l	lumbar_extension	lumbar_bending	lumbar_rotation	arm_flex_r	arm_add_r	arm_rot_r	elbow_flex_r	pro_sup_r	arm_flex_l	arm_add_l	arm_rot_l	elbow_flex_l	pro_sup_l
      4.40000000	    -29.14926039	     -0.08205215	     -0.04081118	      0.90737273	      0.84680448	     -0.01418277	     67.41973478	    -14.85497862	     -8.06808311	     64.87112665	      1.13221475	     27.72445367	     -5.84965157	     -7.49999987	     67.82805354	    -10.29780395	     -2.37540675	     65.13629557	      1.13684282	     27.65343844	     -5.92170367	     -7.49999987	    -29.15726426	      0.51035522	      0.63943324	     49.94126237	    -21.22098328	      6.17274889	    103.65340171	     90.17342792	     50.12700707	    -23.17494211	     18.58210404	    115.75026666	     87.54744163
      4.41666670	    -27.72257685	     -0.01704587	     -0.26906621	      0.91286868	      0.86115201	     -0.01163806	     64.26955280	    -14.41341129	     -8.48955151	     62.46537907	      1.09022653	     26.92776298	     -5.99157537	     -7.49999987	     64.57191173	    -10.35925920	     -2.69920044	     62.68318983	      1.09402805	     26.70710938	     -5.86072893	     -7.49999987	    -28.78036120	      0.11677060	      0.86751499	     43.89346533	    -21.45269330	      6.55676072	    102.13373070	     90.11594204	     43.65370091	    -22.55247022	     17.44292906	    114.02281448	     87.79558221
      4.43333330	    -26.67983670	     -0.13337314	     -0.38124995	      0.91319782	      0.87626649	     -0.01209057	     61.34070996	    -13.96392754	     -9.19038099	     59.81994452	      1.04405499	     26.03848480	     -6.02111400	     -7.49999987	     61.78042082	    -10.48803947	     -2.97512409	     60.09427795	      1.04884301	     25.61956532	     -5.52759079	     -7.49999987	    -28.11680041	      0.19877628	      0.78173239	     39.80474861	    -21.35821157	      8.19099831	    100.25942177	     89.13694617	     38.12281693	    -22.72708320	     16.96479068	    112.90420642	     91.63591704
      4.45000000	    -25.39236831	     -0.23145633	     -0.52352683	      0.91841541	      0.89288784	     -0.00845191	     57.83577775	    -13.43759369	    -10.04848887	     56.51037598	      0.98629212	     24.85439743	     -6.16138357	     -7.49999987	     58.35543867	    -10.58761437	     -3.32226386	     56.84143335	      0.99207016	     24.18676076	     -5.23269734	     -7.49999987	    -27.57508556	      0.05858548	      1.26682049	     35.60966025	    -21.45747073	      8.52075564	     98.02112001	     85.40025958	     34.37904755	    -22.56761973	     17.25423779	    110.92235903	     88.53911216
      4.46666670	    -24.43331366	     -0.33949194	     -0.73272946	      0.92469879	      0.89761441	     -0.00550552	     54.95253409	    -12.83168283	    -10.71840979	     53.61129593	      0.93569363	     23.79804398	     -6.30555998	     -7.49999987	     55.49440449	    -10.81434927	     -3.68217173	     54.03559220	      0.94309900	     22.95672427	     -4.81303484	     -7.49999987	    -26.22341285	      0.04199291	      1.62154172	     31.36788656	    -21.84609983	      8.67572668	     96.93215558	     83.47129052	     30.93247731	    -22.79001116	     16.89111973	    110.37763220	     86.96721752
      4.48333330	    -23.50048912	     -0.35578374	     -0.91174968	      0.92459108	      0.90833917	     -0.00558456	     52.38398982	    -12.31102058	    -11.13991053	     50.99577307	      0.89004414	     22.67645981	     -6.56394423	     -7.49999987	     52.91888491	    -10.94140711	     -4.07185612	     51.53346352	      0.89942861	     22.04677648	     -4.32725351	     -7.49999987	    -24.96680740	     -0.05887576	      1.62544623	     27.16582189	    -22.47750168	      8.59567446	     94.08779098	     83.33478011	     27.60166014	    -22.54620923	     16.32655215	    108.18239323	     87.44887643
      4.50000000	    -22.19422900	     -0.50491356	     -0.92960585	      0.93092840	      0.92385270	     -0.00266438	     48.95460190	    -11.79068669	    -11.90896785	     47.78817713	      0.83406103	     21.44918187	     -6.70647850	     -7.49999987	     49.64372658	    -10.98146277	     -4.32681596	     48.43209152	      0.84529946	     20.77540798	     -4.06754742	     -7.49999987	    -24.17552923	      0.02775471	      1.61479378	     24.43137332	    -22.52448634	      8.95136111	     90.24679912	     82.41959302	     25.18148445	    -22.24419070	     16.24662568	    105.20841309	     91.82055048
      4.51666670	    -20.68111261	     -0.53107171	     -1.06578719	      0.94244433	      0.93665265	     -0.00236521	     45.11800964	    -11.23616448	    -12.52576390	     44.24616432	      0.77224125	     20.09409125	     -6.88948408	     -7.49999987	     45.61759960	    -10.94574501	     -4.75562510	     44.71583256	      0.78043851	     19.11082998	     -3.86882149	     -7.49999987	    -23.39424620	     -0.12364601	      1.72865540	     20.11251374	    -22.26922803	      8.76583946	     88.20540436	     82.21106030	     21.19050482	    -21.95051410	     15.16655811	    102.61955077	     91.74420922
      4.53333330	    -19.09938379	     -0.56886722	     -1.13492497	      0.94345058	      0.95440653	     -0.00244883	     41.24926035	    -10.72258453	    -13.10609558	     40.70228209	      0.71038884	     18.60186353	     -6.76344852	     -7.49999987	     41.58666253	    -10.82961677	     -5.13219397	     40.96168801	      0.71491632	     17.41797813	     -3.54113526	     -7.49999987	    -22.69639008	     -0.20082425	      1.70261998	     16.83871648	    -21.62485708	      8.54285967	     84.89051668	     80.88278298	     18.40220941	    -21.72729598	     14.90675600	     99.32603864	     89.89962215
